<svg width="52" height="52" viewBox="0 0 52 52" fill="none" xmlns="http://www.w3.org/2000/svg">
<rect width="52" height="52" rx="14" fill="white"/>
<path d="M26.7605 15.3778L34.3438 18.2216C34.7569 18.3764 35.1129 18.6537 35.3642 19.0163C35.6154 19.3789 35.7501 19.8095 35.75 20.2507V26.0606C35.75 27.8713 35.2458 29.6463 34.2939 31.1866C33.342 32.7269 31.98 33.9716 30.3604 34.7814L26.7269 36.5982C26.5012 36.7111 26.2523 36.7698 26 36.7698C25.7477 36.7698 25.4988 36.7111 25.2731 36.5982L21.6396 34.7814C20.02 33.9716 18.658 32.7269 17.7061 31.1866C16.7542 29.6463 16.25 27.8713 16.25 26.0606V20.2507C16.2499 19.8095 16.3846 19.3789 16.6358 19.0163C16.8871 18.6537 17.2431 18.3764 17.6562 18.2216L25.2395 15.3778C25.7298 15.194 26.2702 15.194 26.7605 15.3778ZM26 17.4069L18.4167 20.2507V26.0606C18.4169 27.4688 18.8093 28.8491 19.5497 30.0469C20.2902 31.2447 21.3496 32.2126 22.6092 32.8423L26 34.5398L29.3908 32.8444C30.6507 32.2146 31.7103 31.2463 32.4508 30.0481C33.1913 28.8499 33.5835 27.4692 33.5833 26.0606V20.2507L26 17.4069Z" fill="#2B5EA7"/>
<path d="M29.7401 23.26C29.8589 23.1161 30.0292 23.0244 30.2146 23.0042C30.4001 22.984 30.5861 23.037 30.7331 23.152C30.8052 23.2078 30.8655 23.2776 30.9102 23.3572C30.955 23.4368 30.9833 23.5245 30.9935 23.6152C31.0038 23.7059 30.9958 23.7978 30.9699 23.8853C30.9441 23.9729 30.9009 24.0544 30.8431 24.125L27.0831 28.745C27.0201 28.8213 26.9421 28.8837 26.8538 28.9283C26.7655 28.973 26.6689 28.9987 26.5701 29.0041C26.4713 29.0095 26.3725 28.9943 26.2799 28.9595C26.1873 28.9247 26.1029 28.871 26.0321 28.802L23.2121 26.032L23.1631 25.98C22.9371 25.708 22.9531 25.307 23.2121 25.053C23.4711 24.799 23.8801 24.783 24.1571 25.005L24.2101 25.053L26.4801 27.273L29.7501 23.263L29.7401 23.26Z" fill="#2B5EA7"/>
</svg>
