<svg width="44" height="44" viewBox="0 0 44 44" fill="none" xmlns="http://www.w3.org/2000/svg">
<rect width="44" height="44" rx="12" fill="#E8EFF8"/>
<path d="M22 12C27.523 12 32 16.477 32 22C32 27.523 27.523 32 22 32C16.477 32 12 27.523 12 22C12 16.477 16.477 12 22 12ZM22 14C19.8783 14 17.8434 14.8429 16.3431 16.3431C14.8429 17.8434 14 19.8783 14 22C14 24.1217 14.8429 26.1566 16.3431 27.6569C17.8434 29.1571 19.8783 30 22 30C24.1217 30 26.1566 29.1571 27.6569 27.6569C29.1571 26.1566 30 24.1217 30 22C30 19.8783 29.1571 17.8434 27.6569 16.3431C26.1566 14.8429 24.1217 14 22 14ZM22 16C22.2449 16 22.4813 16.09 22.6644 16.2527C22.8474 16.4155 22.9643 16.6397 22.993 16.883L23 17V21.586L25.707 24.293C25.8863 24.473 25.9905 24.7144 25.9982 24.9684C26.006 25.2223 25.9168 25.4697 25.7488 25.6603C25.5807 25.8508 25.3464 25.9703 25.0935 25.9944C24.8406 26.0185 24.588 25.9454 24.387 25.79L24.293 25.707L21.293 22.707C21.1376 22.5514 21.0378 22.349 21.009 22.131L21 22V17C21 16.7348 21.1054 16.4804 21.2929 16.2929C21.4804 16.1054 21.7348 16 22 16Z" fill="#2B5EA7"/>
</svg>
