<svg width="44" height="44" viewBox="0 0 44 44" fill="none" xmlns="http://www.w3.org/2000/svg">
<rect width="44" height="44" rx="12" fill="#E8EFF8"/>
<path d="M26.3333 18.75C26.3333 24.5241 17.6666 24.5241 17.6666 18.75H19.8333C19.8333 21.6425 24.1666 21.6425 24.1666 18.75M30.6666 28.5V31.75H13.3333V28.5C13.3333 25.6075 19.1074 24.1666 21.9999 24.1666C24.8924 24.1666 30.6666 25.6075 30.6666 28.5ZM28.6083 28.5C28.6083 27.8066 25.2174 26.225 21.9999 26.225C18.7824 26.225 15.3916 27.8066 15.3916 28.5V29.6916H28.6083M22.5416 11.1666C22.8449 11.1666 23.0833 11.405 23.0833 11.7083V14.9583H24.1666V12.25C24.9333 12.6048 25.5756 13.1818 26.0103 13.9063C26.4449 14.6307 26.6518 15.469 26.6041 16.3125C26.6041 16.3125 27.3624 16.4641 27.4166 17.6666H16.5833C16.5833 16.4641 17.3958 16.3125 17.3958 16.3125C17.348 15.469 17.5549 14.6307 17.9896 13.9063C18.4242 13.1818 19.0666 12.6048 19.8333 12.25V14.9583H20.9166V11.7083C20.9166 11.405 21.1549 11.1666 21.4583 11.1666" fill="#2B5EA7"/>
</svg>
