<svg width="23" height="22" viewBox="0 0 23 22" fill="none" xmlns="http://www.w3.org/2000/svg">
<path d="M6.60539 12.1752C6.5463 12.1752 6.48721 12.1752 6.42812 12.1752C6.0854 12.2322 5.80177 12.4376 5.63631 12.7457C5.47086 13.0538 5.55359 13.6357 5.90813 13.9781L8.61445 16.5911C8.83899 16.8079 9.14626 16.9335 9.45352 16.9335C9.76079 16.9335 10.0681 16.8079 10.2926 16.5911L16.3316 10.7602C16.5916 10.5092 16.7098 10.1669 16.6507 9.83595C16.5916 9.50504 16.3789 9.23118 16.0598 9.07143C15.6698 8.88886 15.138 8.99155 14.7834 9.33388L9.52443 14.4117L9.42989 14.4801L7.36174 12.4833C7.14902 12.2779 6.86538 12.1638 6.58175 12.1638H6.60539V12.1752Z" fill="#3F3F3F"/>
<path d="M11.0853 0C10.2817 0 9.5253 0.28527 8.85167 0.798755L1.24089 7.12033C0.425448 7.83921 0 8.71784 0 9.66494V18.6566C0 20.5394 1.52452 22 3.46267 22H18.7433C20.6933 22 22.2178 20.528 22.2178 18.6566V9.66494C22.2178 8.61514 21.7806 7.71369 20.9769 7.12033L13.378 0.810166C12.7752 0.296681 11.9716 0.0114108 11.0971 0.0114108L11.0853 0ZM18.7433 21.1214H3.46267C2.06815 21.1214 0.886349 19.9803 0.886349 18.6338V9.64212C0.886349 8.90041 1.20543 8.20436 1.7727 7.7251L9.37167 1.41494C10.3289 0.627593 11.7825 0.627593 12.7634 1.41494L20.3624 7.7251C20.9533 8.21577 21.2487 8.86618 21.2487 9.64212V18.6338C21.2487 19.9575 20.1142 21.0757 18.7552 21.11L18.7433 21.1214Z" fill="#3F3F3F"/>
</svg>
