<svg width="27" height="41" viewBox="0 0 27 41" fill="none" xmlns="http://www.w3.org/2000/svg">
  <path
    d="M13.0996 0C5.86443 0 0 5.86443 0 13.0996C0 16.2196 1.09707 19.0803 2.91999 21.3291C3.50759 22.0529 4.49061 23.1924 5.00301 23.9717C7.95347 28.454 11.7386 34.9638 12.8417 40.306C13.031 41.2183 13.2591 41.2343 13.5047 40.3357C14.2914 37.4551 16.332 31.1611 20.546 24.5753C21.0485 23.79 22.0673 22.6908 22.6997 22.0065C23.6158 21.0144 24.3783 19.8786 24.9576 18.6402C25.7475 16.9509 26.1991 15.0807 26.1991 13.1011C26.1991 5.86513 20.3347 0 13.0996 0Z"
    fill="#2C5282" />
  <path
    d="M5.7877 12.8654C5.7877 16.9037 9.06131 20.1773 13.0996 20.1773C17.1379 20.1773 20.4115 16.9038 20.4115 12.8654C20.4115 8.82788 17.1379 5.55428 13.0996 5.55428C9.06131 5.55428 5.7877 8.82775 5.7877 12.8654Z"
    fill="white" />
  <path
    d="M13.0996 15.6478C14.779 15.6478 16.1405 14.2864 16.1405 12.6069C16.1405 10.9275 14.779 9.56604 13.0996 9.56604C11.4202 9.56604 10.0587 10.9275 10.0587 12.6069C10.0587 14.2864 11.4202 15.6478 13.0996 15.6478Z"
    fill="#2C5282" />
</svg>
  