<svg width="33" height="33" viewBox="0 0 33 33" fill="none" xmlns="http://www.w3.org/2000/svg">
<mask id="path-1-inside-1_14_30" fill="white">
<path fill-rule="evenodd" clip-rule="evenodd" d="M0 14.3495C0 13.1052 0.543734 11.923 1.4885 11.1132L13.2567 1.02616C14.853 -0.342055 17.2084 -0.342055 18.8047 1.02616L30.5729 11.1132C31.5177 11.923 32.0614 13.1052 32.0614 14.3495V28.7375C32.0614 31.0916 30.1531 33 27.7989 33L25.6491 33L24.8734 33C24.8715 33 24.8696 33 24.8676 33H7.19379C7.19187 33 7.18995 33 7.18803 33L6.41226 33L4.26248 33C1.90838 33 0 31.0916 0 28.7375V14.3495Z"/>
</mask>
<path d="M1.4885 11.1132L2.13929 11.8725L2.13929 11.8725L1.4885 11.1132ZM13.2567 1.02616L13.9075 1.78542L13.9075 1.78542L13.2567 1.02616ZM18.8047 1.02616L19.4555 0.266908L19.4555 0.266908L18.8047 1.02616ZM30.5729 11.1132L29.9221 11.8725L29.9221 11.8725L30.5729 11.1132ZM27.7989 33L27.7989 34H27.7989V33ZM25.6491 33L25.6491 32L25.6491 32L25.6491 33ZM24.8734 33L24.8734 34L24.8734 34L24.8734 33ZM7.18803 33L7.18802 34H7.18803V33ZM6.41226 33L6.41226 32L6.41225 32L6.41226 33ZM4.26248 33L4.26248 34L4.26248 34L4.26248 33ZM0.837704 10.354C-0.328703 11.3537 -1 12.8133 -1 14.3495H1C1 13.3971 1.41617 12.4923 2.13929 11.8725L0.837704 10.354ZM12.6059 0.266908L0.837704 10.354L2.13929 11.8725L13.9075 1.78542L12.6059 0.266908ZM19.4555 0.266908C17.4848 -1.4223 14.5767 -1.4223 12.6059 0.266908L13.9075 1.78542C15.1293 0.738193 16.9321 0.738193 18.1539 1.78542L19.4555 0.266908ZM31.2237 10.354L19.4555 0.266908L18.1539 1.78542L29.9221 11.8725L31.2237 10.354ZM33.0614 14.3495C33.0614 12.8133 32.3901 11.3537 31.2237 10.354L29.9221 11.8725C30.6453 12.4923 31.0614 13.3971 31.0614 14.3495H33.0614ZM33.0614 28.7375V14.3495H31.0614V28.7375H33.0614ZM27.7989 34C30.7053 34 33.0614 31.6439 33.0614 28.7375H31.0614C31.0614 30.5393 29.6008 32 27.7989 32V34ZM25.6491 34L27.7989 34L27.799 32L25.6491 32L25.6491 34ZM25.6491 32L24.8734 32L24.8734 34L25.6491 34L25.6491 32ZM24.8676 34C24.868 34 24.8685 34 24.8695 34C24.8704 34 24.8719 34 24.8734 34V32C24.873 32 24.8726 32 24.8715 32C24.8706 32 24.8692 32 24.8676 32V34ZM24.8676 32H7.19379V34H24.8676V32ZM7.18803 34C7.18957 34 7.19102 34 7.1919 34C7.19295 34 7.19341 34 7.19379 34V32C7.19225 32 7.19079 32 7.18992 32C7.18887 32 7.18841 32 7.18803 32V34ZM7.18803 32L6.41226 32L6.41225 34L7.18802 34L7.18803 32ZM4.26248 34L6.41226 34L6.41225 32L4.26248 32L4.26248 34ZM-1 28.7375C-1 31.6439 1.35609 34 4.26248 34V32C2.46066 32 1 30.5393 1 28.7375H-1ZM-1 14.3495V28.7375H1V14.3495H-1Z" fill="white" mask="url(#path-1-inside-1_14_30)"/>
<mask id="path-3-inside-2_14_30" fill="white">
<path fill-rule="evenodd" clip-rule="evenodd" d="M13.5558 21.8217L21.4917 13.8859C22.1658 13.2119 23.2585 13.2119 23.9324 13.8859C24.6066 14.5599 24.6066 15.6526 23.9324 16.3266L14.8984 25.3609C14.1569 26.1023 12.9549 26.1023 12.2134 25.3609L8.06409 21.2114C7.39009 20.5375 7.39009 19.4446 8.06409 18.7707C8.73811 18.0967 9.83088 18.0967 10.5049 18.7707L13.5558 21.8217Z"/>
</mask>
<path fill-rule="evenodd" clip-rule="evenodd" d="M13.5558 21.8217L21.4917 13.8859C22.1658 13.2119 23.2585 13.2119 23.9324 13.8859C24.6066 14.5599 24.6066 15.6526 23.9324 16.3266L14.8984 25.3609C14.1569 26.1023 12.9549 26.1023 12.2134 25.3609L8.06409 21.2114C7.39009 20.5375 7.39009 19.4446 8.06409 18.7707C8.73811 18.0967 9.83088 18.0967 10.5049 18.7707L13.5558 21.8217Z" fill="white"/>
<path d="M21.4917 13.8859L21.1381 13.5323L21.1381 13.5323L21.4917 13.8859ZM13.5558 21.8217L13.2022 22.1753L13.5558 22.5288L13.9094 22.1753L13.5558 21.8217ZM23.9324 13.8859L23.5789 14.2394L23.5789 14.2395L23.9324 13.8859ZM23.9324 16.3266L23.5789 15.9731L23.5789 15.9731L23.9324 16.3266ZM14.8984 25.3609L15.2519 25.7144L15.2519 25.7144L14.8984 25.3609ZM12.2134 25.3609L11.8599 25.7144L11.8599 25.7144L12.2134 25.3609ZM8.06409 21.2114L8.41765 20.8579L8.41764 20.8579L8.06409 21.2114ZM8.06409 18.7707L7.71055 18.4171L7.71055 18.4171L8.06409 18.7707ZM10.5049 18.7707L10.8585 18.4171L10.8584 18.4171L10.5049 18.7707ZM21.1381 13.5323L13.2023 21.4682L13.9094 22.1753L21.8452 14.2394L21.1381 13.5323ZM24.286 13.5323C23.4167 12.663 22.0075 12.6631 21.1381 13.5323L21.8452 14.2395C22.3241 13.7606 23.1002 13.7607 23.5789 14.2394L24.286 13.5323ZM24.2859 16.6802C25.1554 15.811 25.1554 14.4016 24.2859 13.5323L23.5789 14.2395C24.0577 14.7182 24.0577 15.4943 23.5789 15.9731L24.2859 16.6802ZM15.2519 25.7144L24.286 16.6802L23.5789 15.9731L14.5448 25.0073L15.2519 25.7144ZM11.8599 25.7144C12.7966 26.6511 14.3152 26.6511 15.2519 25.7144L14.5448 25.0073C13.9986 25.5535 13.1131 25.5535 12.567 25.0073L11.8599 25.7144ZM7.71053 21.565L11.8599 25.7144L12.567 25.0073L8.41765 20.8579L7.71053 21.565ZM7.71055 18.4171C6.84128 19.2863 6.84128 20.6958 7.71055 21.565L8.41764 20.8579C7.93891 20.3792 7.93891 19.6029 8.41764 19.1242L7.71055 18.4171ZM10.8584 18.4171C9.98916 17.5479 8.57983 17.5479 7.71055 18.4171L8.41763 19.1243C8.89639 18.6455 9.67259 18.6455 10.1514 19.1243L10.8584 18.4171ZM13.9094 21.4682L10.8585 18.4171L10.1513 19.1242L13.2022 22.1753L13.9094 21.4682Z" fill="#315480" mask="url(#path-3-inside-2_14_30)"/>
</svg>
