<svg
  width="21"
  height="21"
  viewBox="0 0 21 21"
  fill="none"
  xmlns="http://www.w3.org/2000/svg"
>
  <path
    fillRule="evenodd"
    clipRule="evenodd"
    d="M12.4773 1.45272C13.4203 0.541933 14.6833 0.0379607 15.9943 0.0493528C17.3053 0.0607449 18.5593 0.58659 19.4864 1.51363C20.4134 2.44067 20.9393 3.69473 20.9507 5.00572C20.9621 6.3167 20.4581 7.57971 19.5473 8.52272L19.5351 8.53512L15.5351 12.5351C14.5975 13.4725 13.3258 13.9992 12 13.9992C10.6742 13.9992 9.40264 13.4726 8.465 12.5352C8.07442 12.1448 8.07433 11.5116 8.46479 11.121C8.85526 10.7304 9.48842 10.7303 9.879 11.1208C10.4416 11.6832 11.2045 11.9992 12 11.9992C12.7954 11.9992 13.5583 11.6833 14.1209 11.1209C14.1209 11.1209 14.1209 11.1209 14.1209 11.1209L18.1143 7.12746C18.6573 6.56229 18.9576 5.80698 18.9507 5.0231C18.9439 4.23651 18.6284 3.48407 18.0722 2.92784C17.5159 2.37162 16.7635 2.05611 15.9769 2.04928C15.193 2.04247 14.4377 2.34276 13.8725 2.8857L12.7791 3.97912C12.3886 4.36964 11.7554 4.36964 11.3649 3.97912C10.9744 3.58859 10.9744 2.95543 11.3649 2.5649L12.4649 1.4649L12.4773 1.45272ZM6.465 7.4648C7.40264 6.52744 8.67418 6.00087 10 6.00087C11.3258 6.00087 12.5974 6.52744 13.535 7.4648C13.9256 7.85526 13.9257 8.48843 13.5352 8.87901C13.1448 9.26959 12.5116 9.26969 12.121 8.87922C11.5584 8.31681 10.7955 8.00087 10 8.00087C9.20456 8.00087 8.44168 8.31677 7.87911 8.87912C7.87908 8.87915 7.87915 8.87908 7.87911 8.87912L3.87911 12.8791L3.86672 12.8913C3.58019 13.168 3.35164 13.4991 3.19441 13.8651C3.03718 14.2311 2.95443 14.6248 2.95096 15.0231C2.9475 15.4214 3.02341 15.8165 3.17425 16.1852C3.32509 16.5539 3.54785 16.8888 3.82953 17.1705C4.11121 17.4522 4.44616 17.6749 4.81485 17.8258C5.18354 17.9766 5.57858 18.0525 5.97692 18.0491C6.37526 18.0456 6.76892 17.9628 7.13493 17.8056C7.50094 17.6484 7.83197 17.4198 8.10872 17.1333L8.12122 17.1206L9.22322 16.0196C9.61392 15.6292 10.2471 15.6295 10.6374 16.0202C11.0278 16.4109 11.0275 17.0441 10.6368 17.4344L9.54074 18.5295C9.08084 19.0039 8.53145 19.3824 7.92432 19.6432C7.3143 19.9053 6.6582 20.0432 5.9943 20.049C5.3304 20.0547 4.672 19.9282 4.05752 19.6768C3.44304 19.4254 2.88478 19.0542 2.41532 18.5847C1.94585 18.1152 1.57459 17.557 1.32318 16.9425C1.07178 16.328 0.945271 15.6696 0.95104 15.0057C0.956809 14.3418 1.09474 13.6857 1.35679 13.0757C1.61762 12.4685 1.99623 11.919 2.4707 11.4591L6.465 7.4648Z"
    fill="#171923"
  />
</svg>