<svg width="206" height="54" viewBox="0 0 206 54" fill="none" xmlns="http://www.w3.org/2000/svg">
<g clip-path="url(#clip0_2223_3484)">
<mask id="mask0_2223_3484" style="mask-type:luminance" maskUnits="userSpaceOnUse" x="0" y="0" width="41" height="54">
<path d="M40.0772 0H0.379883V53.7081H40.0772V0Z" fill="white"/>
</mask>
<g mask="url(#mask0_2223_3484)">
<path fill-rule="evenodd" clip-rule="evenodd" d="M35.3337 42.9811H5.04991C4.02829 42.9811 3.22559 42.1784 3.22559 41.1568V33.2027C3.22559 32.1811 4.02829 31.3784 5.04991 31.3784H35.3337C36.3553 31.3784 37.158 32.1811 37.158 33.2027V41.1568C37.158 42.1784 36.3553 42.9811 35.3337 42.9811ZM20.4472 33.6406L18.5499 40.7919C18.5499 40.9379 18.6229 41.0838 18.8418 41.0838H19.7175C19.8634 41.0838 19.9364 41.0108 20.0094 40.8649L21.8337 33.7136C21.9067 33.5676 21.8337 33.4217 21.6148 33.4217H20.7391C20.5932 33.4217 20.5202 33.4946 20.4472 33.6406ZM22.6364 39.7703V38.9676C22.6364 38.8217 22.7094 38.6757 22.8553 38.6757L25.1905 37.7271L22.8553 36.7784C22.7094 36.7054 22.6364 36.6325 22.6364 36.4865V35.6838C22.6364 35.4649 22.7823 35.3919 22.9283 35.4649L26.285 36.9244C26.431 36.9973 26.504 37.0703 26.504 37.2163V38.1649C26.504 38.3108 26.431 38.3838 26.285 38.4568L22.9283 39.9163C22.7823 40.0622 22.6364 39.9892 22.6364 39.7703ZM14.1715 38.5298L17.5283 39.9892C17.7472 40.0622 17.8932 39.9892 17.8202 39.7703V38.9676C17.8202 38.8217 17.7472 38.7487 17.6013 38.6757L15.2661 37.7271L17.6013 36.7784C17.7472 36.7784 17.8202 36.6325 17.8202 36.4865V35.7568C17.8202 35.5379 17.7472 35.4649 17.5283 35.5379L14.1715 36.9973C14.0256 37.0703 13.9526 37.1433 13.9526 37.2892V38.2379C13.9526 38.3838 14.0256 38.4568 14.1715 38.5298Z" fill="white"/>
<path d="M22.2715 2.04324C22.2715 0.875676 21.3228 0 20.1553 0C18.9877 0 18.112 0.875676 18.0391 2.04324C19.9364 1.8973 20.4472 1.8973 22.2715 2.04324Z" fill="white"/>
<path d="M1.18259 40.573C1.6934 40.646 2.13123 40.2082 2.13123 39.6974V19.5568C2.13123 19.046 1.6934 18.6812 1.18259 18.6812C0.744748 18.7541 0.379883 19.119 0.379883 19.5568V39.5514C0.452856 40.1352 0.744748 40.5001 1.18259 40.573Z" fill="white"/>
<path d="M38.1797 19.6298V39.6974C38.1797 40.2082 38.6175 40.573 39.1283 40.573C39.5662 40.5001 39.931 40.1352 39.931 39.6974V19.5568C39.931 19.046 39.4932 18.6812 38.9824 18.6812C38.5446 18.7541 38.1797 19.192 38.1797 19.6298Z" fill="white"/>
<path d="M39.0556 44.0027H1.4015C0.817721 44.0027 0.379883 44.5135 0.379883 45.0243V45.6081C0.379883 46.1919 0.817721 46.7027 1.4015 46.7027H8.91772L4.46637 51.6649C3.66367 52.5405 4.53934 53.7081 5.92583 53.7081H34.4583C35.8447 53.7081 36.7204 52.5405 35.9907 51.6649L31.6123 46.7027H39.0556C39.6393 46.7027 40.0772 46.2648 40.0772 45.6811V45.0973C40.0772 44.5135 39.6393 44.0027 39.0556 44.0027Z" fill="white"/>
<path d="M1.10938 11.3838C1.10938 11.7487 1.40127 12.1135 1.8391 12.1135C2.64181 12.1135 3.22559 12.7703 3.22559 13.5V28.4595C3.22559 29.4811 4.02829 30.2838 5.04992 30.2838H35.3337C36.3553 30.2838 37.158 29.4811 37.158 28.4595V13.5C37.158 12.6973 37.8148 12.1135 38.5445 12.1135C38.9094 12.1135 39.2742 11.8216 39.2742 11.3838V9.99732C26.504 5.76489 13.8067 5.76489 1.10938 9.99732V11.3838ZM26.285 14.6676C26.285 13.7189 27.0878 12.8433 28.1094 12.8433H33.1445C34.0932 12.8433 34.9688 13.646 34.9688 14.6676V26.4892C34.9688 27.4379 34.1661 28.3135 33.1445 28.3135H28.1094C27.1607 28.3135 26.285 27.5108 26.285 26.4892V14.6676ZM15.8499 14.6676C15.8499 13.7189 16.6526 12.8433 17.6742 12.8433H22.7094C23.658 12.8433 24.5337 13.646 24.5337 14.6676V26.4892C24.5337 27.4379 23.731 28.3135 22.7094 28.3135H17.6742C16.7256 28.3135 15.8499 27.5108 15.8499 26.4892V14.6676ZM5.48775 14.6676C5.48775 13.7189 6.29046 12.8433 7.31208 12.8433H12.3472C13.2959 12.8433 14.1715 13.646 14.1715 14.6676V26.4892C14.1715 27.4379 13.3688 28.3135 12.3472 28.3135H7.31208C6.36343 28.3135 5.48775 27.5108 5.48775 26.4892V14.6676Z" fill="white"/>
<path d="M8.11523 5.39985C8.11523 5.39985 18.3314 2.04309 32.3423 5.39985" stroke="white" stroke-width="2.48563" stroke-miterlimit="10" stroke-linecap="round"/>
<path d="M1.76611 11.0918C1.76611 11.0918 17.3823 3.13772 38.6904 11.0918" stroke="white" stroke-width="2.48563" stroke-miterlimit="10" stroke-linecap="round"/>
</g>
</g>
<g clip-path="url(#clip1_2223_3484)">
<path d="M69.923 21.9648H66.3474V21.1621C66.3474 20.3593 66.1284 19.6296 65.7636 19.0458C65.3257 18.4621 64.669 18.1702 63.7933 18.1702C63.2825 18.1702 62.9176 18.2431 62.6257 18.4621C62.3338 18.681 62.042 18.8999 61.896 19.1918C61.6771 19.4837 61.5311 19.7756 61.4582 20.2134C61.3852 20.5783 61.3852 20.9431 61.3852 21.381C61.3852 21.8918 61.3852 22.2566 61.4582 22.6215C61.4582 22.9134 61.6041 23.2053 61.7501 23.4972C61.896 23.7891 62.1149 24.008 62.3338 24.1539C62.6257 24.3729 62.9906 24.5188 63.4284 24.7377L66.1284 25.8323C66.9311 26.1242 67.5879 26.4891 68.0257 26.9269C68.5365 27.3648 68.9014 27.8026 69.1933 28.3134C69.4852 28.8972 69.6311 29.481 69.7041 30.2107C69.7771 30.9404 69.8501 31.7431 69.8501 32.6188C69.8501 33.6404 69.7771 34.6621 69.5582 35.5377C69.3392 36.4134 68.9744 37.2161 68.5365 37.7999C68.0257 38.4566 67.369 38.9675 66.6392 39.3323C65.8365 39.6972 64.8879 39.9161 63.7203 39.9161C62.8447 39.9161 62.042 39.7702 61.3122 39.4783C60.5825 39.1864 59.9257 38.7485 59.4149 38.2377C58.9041 37.7269 58.4663 37.0702 58.1014 36.3404C57.7365 35.6107 57.6636 34.881 57.6636 34.0053V32.6918H61.2392V33.7864C61.2392 34.4431 61.4582 35.0269 61.823 35.5377C62.1879 36.0485 62.8447 36.3404 63.7933 36.3404C64.3771 36.3404 64.8879 36.2675 65.1798 36.0485C65.5447 35.9026 65.7636 35.6107 65.9825 35.3188C66.2014 35.0269 66.2744 34.5891 66.3474 34.1512C66.3474 33.7134 66.4203 33.2026 66.4203 32.6188C66.4203 31.9621 66.4203 31.4512 66.3474 31.0134C66.2744 30.5756 66.2014 30.2837 66.0555 29.9918C65.9095 29.6999 65.6906 29.5539 65.3987 29.335C65.1068 29.1891 64.742 28.9702 64.3041 28.8242L61.6771 27.8026C60.1447 27.1458 59.123 26.3431 58.6122 25.3215C58.1014 24.2999 57.8095 22.9864 57.8095 21.381C57.8095 20.4323 57.9555 19.5566 58.1744 18.7539C58.4663 17.8783 58.8311 17.2215 59.342 16.5648C59.8528 15.981 60.4365 15.4702 61.2392 15.1053C61.969 14.7404 62.9176 14.5945 63.9392 14.5945C64.8149 14.5945 65.6176 14.7404 66.3474 15.1053C67.0771 15.4702 67.7338 15.835 68.2447 16.4188C69.3392 17.5134 69.8501 18.8269 69.8501 20.2864V21.9648H69.923Z" fill="white"/>
<path d="M72.3311 39.7702V14.8135H82.9851V18.1702H75.9067V25.7594H82.0365V29.1162H75.9067V39.7702H72.3311Z" fill="white"/>
<path d="M103.126 32.6188V34.1512C103.126 34.9539 102.98 35.6837 102.688 36.3404C102.396 36.9972 101.958 37.6539 101.448 38.1648C100.937 38.6756 100.353 39.1134 99.6232 39.4783C98.9665 39.7702 98.1638 39.9161 97.434 39.9161C96.7773 39.9161 96.0475 39.8431 95.3908 39.6242C94.6611 39.4053 94.0773 39.1134 93.4935 38.6756C92.9097 38.2377 92.4719 37.581 92.107 36.8512C91.7421 36.1215 91.5962 35.2458 91.5962 34.0783V20.3593C91.5962 19.5566 91.7421 18.7539 92.034 18.0972C92.3259 17.4404 92.6908 16.7837 93.2016 16.2729C93.7124 15.7621 94.2962 15.3242 95.0259 15.0323C95.7557 14.7404 96.5584 14.5945 97.3611 14.5945C99.0394 14.5945 100.426 15.1783 101.448 16.2729C101.958 16.7837 102.396 17.4404 102.688 18.1702C102.98 18.8999 103.126 19.7026 103.126 20.5783V21.9648H99.5502V20.7242C99.5502 19.9945 99.3313 19.4107 98.9665 18.8999C98.6016 18.3891 98.0178 18.0972 97.3611 18.0972C96.4854 18.0972 95.9016 18.3891 95.6097 18.8999C95.3178 19.4837 95.1719 20.1404 95.1719 21.0161V33.7864C95.1719 34.5161 95.3178 35.0999 95.6097 35.6107C95.9016 36.1215 96.4854 36.3404 97.2881 36.3404C97.507 36.3404 97.7989 36.2675 98.0178 36.1945C98.3097 36.1215 98.5286 35.9756 98.7475 35.7566C98.9665 35.5377 99.1124 35.3188 99.2584 34.9539C99.4043 34.6621 99.4773 34.2242 99.4773 33.7134V32.4729H103.126V32.6188Z" fill="white"/>
<path d="M105.752 39.7702V14.8135H109.328V39.7702H105.752Z" fill="white"/>
<path d="M124.872 14.8135L119.764 39.7702H116.626L111.518 14.8135H115.312L118.158 32.254H118.231L121.077 14.8135H124.872Z" fill="white"/>
<path d="M127.134 39.7702V14.8135H130.709V39.7702H127.134Z" fill="white"/>
<path d="M145.012 32.6188V34.1512C145.012 34.9539 144.866 35.6837 144.574 36.3404C144.282 36.9972 143.845 37.6539 143.334 38.1648C142.823 38.6756 142.239 39.1134 141.509 39.4783C140.853 39.7702 140.05 39.9161 139.32 39.9161C138.664 39.9161 137.934 39.8431 137.277 39.6242C136.547 39.4053 135.964 39.1134 135.38 38.6756C134.796 38.2377 134.358 37.581 133.993 36.8512C133.628 36.1215 133.482 35.1729 133.482 34.0053V20.3593C133.482 19.5566 133.628 18.7539 133.92 18.0972C134.212 17.4404 134.577 16.7837 135.088 16.2729C135.599 15.7621 136.182 15.3242 136.912 15.0323C137.642 14.7404 138.445 14.5945 139.247 14.5945C140.926 14.5945 142.312 15.1783 143.334 16.2729C143.845 16.7837 144.282 17.4404 144.574 18.1702C144.866 18.8999 145.012 19.7026 145.012 20.5783V21.9648H141.436V20.7242C141.436 19.9945 141.218 19.4107 140.853 18.8999C140.488 18.3891 139.904 18.0972 139.247 18.0972C138.372 18.0972 137.788 18.3891 137.496 18.8999C137.204 19.4837 137.058 20.1404 137.058 21.0161V33.7864C137.058 34.5161 137.204 35.0999 137.496 35.6107C137.788 36.1215 138.372 36.3404 139.174 36.3404C139.393 36.3404 139.685 36.2675 139.904 36.1945C140.196 36.1215 140.415 35.9756 140.634 35.7566C140.853 35.5377 140.999 35.3188 141.145 34.9539C141.291 34.6621 141.363 34.2242 141.363 33.7134V32.4729H145.012V32.6188Z" fill="white"/>
<path d="M156.834 39.7702V18.1702H152.674V14.8135H164.496V18.1702H160.336V39.7702H156.834Z" fill="white"/>
<path d="M166.393 39.7702V14.8135H177.047V18.1702H169.969V25.4675H176.098V28.8243H169.969V36.1216H177.047V39.6973H166.393V39.7702Z" fill="white"/>
<path d="M190.693 32.6188V34.1512C190.693 34.9539 190.547 35.6837 190.255 36.3404C189.964 36.9972 189.526 37.6539 189.015 38.1648C188.504 38.6756 187.92 39.1134 187.191 39.4783C186.534 39.7702 185.731 39.9161 185.001 39.9161C184.345 39.9161 183.615 39.8431 182.958 39.6242C182.228 39.4053 181.645 39.1134 181.061 38.6756C180.477 38.2377 180.039 37.581 179.674 36.8512C179.31 36.1215 179.164 35.1729 179.164 34.0053V20.3593C179.164 19.5566 179.31 18.7539 179.601 18.0972C179.893 17.4404 180.258 16.7837 180.769 16.2729C181.28 15.7621 181.864 15.3242 182.593 15.0323C183.323 14.7404 184.126 14.5945 184.928 14.5945C186.607 14.5945 187.993 15.1783 189.015 16.2729C189.526 16.7837 189.964 17.4404 190.255 18.1702C190.547 18.8999 190.693 19.7026 190.693 20.5783V21.9648H187.191V20.7242C187.191 19.9945 186.972 19.4107 186.607 18.8999C186.242 18.3891 185.658 18.0972 185.001 18.0972C184.126 18.0972 183.542 18.3891 183.25 18.8999C182.958 19.4837 182.812 20.1404 182.812 21.0161V33.7864C182.812 34.5161 182.958 35.0999 183.25 35.6107C183.542 36.1215 184.126 36.3404 184.928 36.3404C185.147 36.3404 185.439 36.2675 185.658 36.1945C185.95 36.1215 186.169 35.9756 186.388 35.7566C186.607 35.5377 186.753 35.3188 186.899 34.9539C187.045 34.6621 187.118 34.2242 187.118 33.7134V32.4729H190.693V32.6188Z" fill="white"/>
<path d="M193.248 39.7702V14.8135H196.823V25.4675H201.202V14.8135H204.777V39.7702H201.202V28.6054H196.823V39.6973H193.248V39.7702Z" fill="white"/>
</g>
<defs>
<clipPath id="clip0_2223_3484">
<rect width="40.1351" height="54" fill="white" transform="translate(0.379883)"/>
</clipPath>
<clipPath id="clip1_2223_3484">
<rect width="147.843" height="25.3946" fill="white" transform="translate(57.2988 14.5945)"/>
</clipPath>
</defs>
</svg>
